<svg width="47" height="40" viewBox="0 0 47 40" xmlns="http://www.w3.org/2000/svg">
    <path d="M40.113 19.43v.266l5.169-5.642c1.624-1.772 1.624-4.638 0-6.41L39.49 1.33c-1.625-1.773-4.25-1.773-5.874 0l-2.974 3.246c-.2-.025-.408-.04-.616-.04H21.72c-2.751 0-5.013 2.266-5.31 5.18h-.03v9.713c0 1.79 1.328 3.238 2.967 3.238s2.966-1.449 2.966-3.238v-7.123H34.18c3.278 0 5.933 2.898 5.933 6.476v.647zm-15.426-4.534v4.533c0 3.222-2.388 5.829-5.34 5.829s-5.34-2.607-5.34-5.829v-9.6c-2.662.502-4.88 2.615-5.636 5.52l-1.224 4.663-5.429 5.925c-1.624 1.773-1.624 4.639 0 6.411L7.51 38.67c1.625 1.773 4.25 1.773 5.874 0l2.796-3.051c.067 0 .134.008.2.008h11.866c1.966 0 3.56-1.74 3.56-3.886 0-.453-.074-.89-.2-1.295h.2c1.966 0 3.56-1.74 3.56-3.885 0-1.036-.37-1.975-.979-2.671 1.906-.405 3.345-2.235 3.352-4.436v-.033c-.007-2.493-1.861-4.517-4.153-4.517h-8.9v-.008z" fill="#FFF" fill-rule="nonzero"/>
</svg>
