<svg width="150" height="150" viewBox="0 0 150 150" fill="none" xmlns="http://www.w3.org/2000/svg">
<mask id="mask0_2132_1603" style="mask-type:alpha" maskUnits="userSpaceOnUse" x="0" y="21" width="129" height="129">
<path d="M0 21.4287L128.571 150H0V21.4287Z" fill="#D9D9D9"/>
</mask>
<g mask="url(#mask0_2132_1603)">
<rect width="150" height="150" fill="url(#paint0_linear_2132_1603)"/>
<rect width="150" height="150" fill="#00A3FF"/>
<path opacity="0.4" d="M11.7853 150L11.7853 8.57129M35.3567 152.143V139.286M35.3567 92.1427L35.3567 10.7141M58.9282 152.143L58.9282 10.7141M82.4996 152.143L82.4996 10.7141M106.071 154.286V10.7141M129.642 153.214V10.7141M137.142 138.214L-4.28613 138.214M12.8567 114.643H-2.14328M139.285 114.643H57.8567M139.285 91.0713L-2.14327 91.0713M139.285 67.4999L-2.14327 67.4999M141.428 43.9284H-1.07185M141.428 24.6427L-0.000416653 24.6427" stroke="white"/>
<path fill-rule="evenodd" clip-rule="evenodd" d="M20.5372 76.3908C22.2038 74.7396 24.9059 74.7396 26.5725 76.3908C28.2391 78.0421 28.2391 80.7194 26.5725 82.3706C24.9059 84.0219 22.2038 84.0219 20.5372 82.3706C18.8707 80.7194 18.8707 78.0421 20.5372 76.3908ZM29.6041 73.3871C26.2632 70.0769 20.8465 70.0769 17.5057 73.3871C14.1648 76.6973 14.1648 82.0642 17.5057 85.3744C20.8465 88.6846 26.2632 88.6846 29.6041 85.3744C32.9449 82.0642 32.9449 76.6973 29.6041 73.3871Z" fill="white" fill-opacity="0.4"/>
<path fill-rule="evenodd" clip-rule="evenodd" d="M64.2857 43.107L29.9524 77.1249L25.3746 72.5892L59.7079 38.5713L64.2857 43.107Z" fill="white" fill-opacity="0.4"/>
<path fill-rule="evenodd" clip-rule="evenodd" d="M20.5372 52.8195C22.2038 51.1683 24.9059 51.1683 26.5725 52.8195C28.2391 54.4708 28.2391 57.1481 26.5725 58.7993C24.9059 60.4506 22.2038 60.4506 20.5372 58.7993C18.8707 57.1481 18.8707 54.4708 20.5372 52.8195ZM29.6041 49.8158C26.2632 46.5056 20.8465 46.5056 17.5057 49.8158C14.1648 53.126 14.1648 58.4929 17.5057 61.8031C20.8465 65.1133 26.2632 65.1133 29.6041 61.8031C32.9449 58.4929 32.9449 53.126 29.6041 49.8158Z" fill="white" fill-opacity="0.4"/>
<path fill-rule="evenodd" clip-rule="evenodd" d="M64.2857 19.5357L29.9524 53.5536L25.3746 49.0179L59.7079 15L64.2857 19.5357Z" fill="white" fill-opacity="0.4"/>
<path fill-rule="evenodd" clip-rule="evenodd" d="M44.1085 76.3908C45.7751 74.7396 48.4772 74.7396 50.1438 76.3908C51.8104 78.0421 51.8104 80.7194 50.1438 82.3706C48.4772 84.0219 45.7751 84.0219 44.1085 82.3706C42.4419 80.7194 42.4419 78.0421 44.1085 76.3908ZM53.1754 73.3871C49.8345 70.0769 44.4178 70.0769 41.077 73.3871C37.7361 76.6973 37.7361 82.0642 41.077 85.3744C44.4178 88.6846 49.8345 88.6846 53.1754 85.3744C56.5162 82.0642 56.5162 76.6973 53.1754 73.3871Z" fill="white" fill-opacity="0.4"/>
<path fill-rule="evenodd" clip-rule="evenodd" d="M87.857 43.107L53.5237 77.1249L48.9459 72.5892L83.2792 38.5713L87.857 43.107Z" fill="white" fill-opacity="0.4"/>
<path fill-rule="evenodd" clip-rule="evenodd" d="M67.6798 123.533C69.3464 121.882 72.0485 121.882 73.7151 123.533C75.3816 125.185 75.3816 127.862 73.7151 129.513C72.0485 131.164 69.3464 131.164 67.6798 129.513C66.0132 127.862 66.0132 125.185 67.6798 123.533ZM76.7466 120.53C73.4058 117.219 67.9891 117.219 64.6482 120.53C61.3074 123.84 61.3074 129.207 64.6482 132.517C67.9891 135.827 73.4058 135.827 76.7466 132.517C80.0875 129.207 80.0875 123.84 76.7466 120.53Z" fill="white" fill-opacity="0.4"/>
<path fill-rule="evenodd" clip-rule="evenodd" d="M111.428 90.2496L77.095 124.267L72.5172 119.732L106.851 85.7139L111.428 90.2496Z" fill="white" fill-opacity="0.4"/>
<path fill-rule="evenodd" clip-rule="evenodd" d="M91.2511 123.533C92.9177 121.882 95.6198 121.882 97.2864 123.533C98.9529 125.185 98.9529 127.862 97.2864 129.513C95.6198 131.164 92.9177 131.164 91.2511 129.513C89.5845 127.862 89.5845 125.185 91.2511 123.533ZM100.318 120.53C96.977 117.219 91.5604 117.219 88.2195 120.53C84.8786 123.84 84.8786 129.207 88.2195 132.517C91.5604 135.827 96.977 135.827 100.318 132.517C103.659 129.207 103.659 123.84 100.318 120.53Z" fill="white" fill-opacity="0.4"/>
<path fill-rule="evenodd" clip-rule="evenodd" d="M135 90.2496L100.666 124.267L96.0885 119.732L130.422 85.7139L135 90.2496Z" fill="white" fill-opacity="0.4"/>
<path fill-rule="evenodd" clip-rule="evenodd" d="M67.6798 99.9621C69.3464 98.3109 72.0485 98.3109 73.7151 99.9621C75.3816 101.613 75.3816 104.291 73.7151 105.942C72.0485 107.593 69.3464 107.593 67.6798 105.942C66.0132 104.291 66.0132 101.613 67.6798 99.9621ZM76.7466 96.9584C73.4058 93.6482 67.9891 93.6482 64.6482 96.9584C61.3074 100.269 61.3074 105.635 64.6482 108.946C67.9891 112.256 73.4058 112.256 76.7466 108.946C80.0875 105.635 80.0875 100.269 76.7466 96.9584Z" fill="white" fill-opacity="0.4"/>
<path fill-rule="evenodd" clip-rule="evenodd" d="M111.428 66.6783L77.095 100.696L72.5172 96.1605L106.851 62.1426L111.428 66.6783Z" fill="white" fill-opacity="0.4"/>
<path d="M30.2885 104.368L22.0958 128.136H17.1426L27.4634 100.714H30.6275L30.2885 104.368ZM37.144 128.136L28.9325 104.368L28.5746 100.714H31.7575L42.1161 128.136H37.144ZM36.7485 117.966V121.713H21.8322V117.966H36.7485Z" fill="white"/>
<path d="M50.5548 100.714V128.136H45.8276V100.714H50.5548Z" fill="white"/>
</g>
<defs>
<linearGradient id="paint0_linear_2132_1603" x1="74.1176" y1="75.8823" x2="-8.28329e-06" y2="150" gradientUnits="userSpaceOnUse">
<stop/>
<stop offset="1" stop-color="#121F38"/>
</linearGradient>
</defs>
</svg>
